<svg width="218" height="45" viewBox="0 0 218 45" fill="none" xmlns="http://www.w3.org/2000/svg">
<path d="M11.504 45V9.256H0.400002V0.199997H31.632V9.256H20.528V45H11.504ZM14.992 41.608H16.976V5.608H28.272V3.65599H3.76V5.608H14.992V41.608ZM40.4945 45L33.9025 38.408V6.792L40.4945 0.199997H61.7425L68.3345 6.792V38.408L61.7425 45H40.4945ZM44.9105 35.944H57.3265L59.2785 33.992V11.208L57.3265 9.256H44.9105L42.9585 11.208V33.992L44.9105 35.944ZM42.3505 41.352H59.9185L64.7825 36.488V8.488L59.9185 3.65599H42.3505L37.5185 8.488V36.488L42.3505 41.352ZM43.2465 39.368L39.4705 35.656V9.352L43.2465 5.608H59.0225L62.7985 9.352V35.656L59.0225 39.368H43.2465ZM104.995 34.376C106.574 33.0107 108.174 31.6667 109.795 30.344C111.459 29.0213 112.739 28.0187 113.635 27.336C114.787 26.44 116.174 25.416 117.795 24.264C119.459 23.0693 121.251 21.8747 123.171 20.68C121.379 19.528 119.587 18.3333 117.795 17.096C116.003 15.816 114.616 14.792 113.635 14.024C112.398 13.0427 110.99 11.912 109.411 10.632C107.832 9.3093 106.382 8.07199 105.059 6.91999L107.299 4.424C109.048 6.0453 110.606 7.432 111.971 8.584C113.336 9.6933 114.552 10.6747 115.619 11.528C117.112 12.68 119.011 14.0667 121.315 15.688C123.662 17.2667 126.264 18.9307 129.123 20.68C126.008 22.5147 123.342 24.2 121.123 25.736C118.947 27.272 117.112 28.6373 115.619 29.832C114.552 30.6427 113.336 31.624 111.971 32.776C110.606 33.928 109.048 35.3147 107.299 36.936L104.995 34.376ZM71.459 16.456H108.899C108.046 15.8587 106.915 15.0267 105.507 13.96C104.142 12.8933 102.84 11.848 101.603 10.824L103.715 8.39199C104.952 9.54399 106.275 10.7173 107.683 11.912C109.091 13.064 110.456 14.1307 111.779 15.112C112.59 15.7093 113.528 16.4133 114.595 17.224C115.704 18.0347 116.899 18.8453 118.179 19.656H71.459V16.456ZM101.603 30.536C102.328 29.896 103.139 29.2133 104.035 28.488C104.974 27.7627 105.87 27.08 106.723 26.44C107.619 25.8 108.344 25.288 108.899 24.904H71.459V21.704H118.243C117.304 22.3013 116.344 22.984 115.363 23.752C114.424 24.4773 113.55 25.1387 112.739 25.736C111.459 26.6747 109.966 27.8053 108.259 29.128C106.595 30.4507 105.08 31.7093 103.715 32.904L101.603 30.536ZM146.14 45V0.199997H172.796L179.388 6.792V38.408L172.796 45H146.14ZM155.196 35.944H168.412L170.364 33.992V11.208L168.412 9.256H155.196V35.944ZM149.724 41.48H170.94L175.772 36.616V8.64799L170.94 3.784H149.724V22.632V41.48ZM151.708 39.496V5.768H170.044L173.82 9.48V35.784L170.044 39.496H151.708ZM189.822 45L183.23 38.408V6.792L189.822 0.199997H211.07L217.662 6.792V38.408L211.07 45H189.822ZM194.238 35.944H206.654L208.606 33.992V11.208L206.654 9.256H194.238L192.286 11.208V33.992L194.238 35.944ZM191.678 41.352H209.246L214.11 36.488V8.488L209.246 3.65599H191.678L186.846 8.488V36.488L191.678 41.352ZM192.574 39.368L188.798 35.656V9.352L192.574 5.608H208.35L212.126 9.352V35.656L208.35 39.368H192.574Z" fill="url(#paint0_linear_1416_445)"/>
<defs>
<linearGradient id="paint0_linear_1416_445" x1="110" y1="-17" x2="110" y2="58" gradientUnits="userSpaceOnUse">
<stop stop-color="#DB00FF"/>
<stop offset="0.592191" stop-color="#39E6C6"/>
<stop offset="1" stop-color="#00FF85"/>
</linearGradient>
</defs>
</svg>
